<svg xmlns="http://www.w3.org/2000/svg" viewBox="0 0 16 16"><defs><style>.cls-1{fill:#0082f0;}.cls-2{fill:#fff;}</style></defs><title>Resurs 15</title><g id="Lager_2" data-name="Lager 2"><g id="Lager_1-2" data-name="Lager 1"><path class="cls-1" d="M2.65,2.07a8,8,0,0,0-.13,11.74l3.92-6Z"/><path class="cls-1" d="M11.44.78a8,8,0,0,0-6.88,0L8,6.08Z"/><path class="cls-1" d="M13.49,13.81a8,8,0,0,0-.13-11.74L9.6,7.83Z"/><path class="cls-1" d="M4.4,15.14A8,8,0,0,0,8,16a7.9,7.9,0,0,0,3.6-.86L8,9.58Z"/><path class="cls-1" d="M9.6,7.83l3.76-5.76A8.08,8.08,0,0,0,11.44.78L8,6.08,4.56.78A8,8,0,0,0,2.65,2.07L6.44,7.83l-3.92,6A7.8,7.8,0,0,0,4.4,15.14L8,9.58l3.6,5.56a8.06,8.06,0,0,0,1.89-1.33Z"/><path class="cls-2" d="M4.89,10.86V6H3.16v-.9H7.54V6H5.82v4.82Z"/><path class="cls-2" d="M12.84,7.85v.29a2.4,2.4,0,0,1-2.49,2.71H8.44V5.14h1.91A2.4,2.4,0,0,1,12.84,7.85Zm-.94,0c0-1-.46-1.82-1.55-1.82h-1V10h1c1.09,0,1.55-.79,1.55-1.84Z"/></g></g></svg>