<svg xmlns="http://www.w3.org/2000/svg" viewBox="0 0 32 32"><defs><style>.cls-1{fill:#0082f0;}.cls-2,.cls-3{fill:#fff;}.cls-2{opacity:0.25;}</style></defs><title>Resurs 1</title><g id="Lager_2" data-name="Lager 2"><g id="Lager_1-2" data-name="Lager 1"><path class="cls-1" d="M5.3,4.13A16,16,0,0,0,5,27.63l7.85-12Z"/><path class="cls-1" d="M22.88,1.57a15.86,15.86,0,0,0-13.76,0L16,12.17Z"/><path class="cls-1" d="M27,27.62a15.95,15.95,0,0,0-.27-23.48L19.2,15.66Z"/><path class="cls-1" d="M8.8,30.28a15.93,15.93,0,0,0,14.4,0L16,19.16Z"/><path class="cls-1" d="M19.2,15.66,26.71,4.14a16.06,16.06,0,0,0-3.83-2.57L16,12.17,9.12,1.57A16,16,0,0,0,5.3,4.13l7.58,11.53L5,27.63A16.32,16.32,0,0,0,8.8,30.28L16,19.16l7.2,11.12A16.21,16.21,0,0,0,27,27.62Z"/><path class="cls-2" d="M19.2,15.66,26.71,4.14a16.06,16.06,0,0,0-3.83-2.57L16,12.17,9.12,1.57A16,16,0,0,0,5.3,4.13l7.58,11.53L5,27.63A16.32,16.32,0,0,0,8.8,30.28L16,19.16l7.2,11.12A16.21,16.21,0,0,0,27,27.62Z"/><path class="cls-3" d="M9.78,21.72V12.08H6.32v-1.8h8.76v1.8H11.63v9.64Z"/><path class="cls-3" d="M25.68,15.7v.59c0,3.1-1.63,5.41-5,5.41H16.87V10.28h3.84C24.05,10.28,25.68,12.6,25.68,15.7Zm-1.87,0c0-2.07-.93-3.63-3.1-3.63h-2v7.86h2c2.17,0,3.1-1.58,3.1-3.67Z"/></g></g></svg>