<svg xmlns="http://www.w3.org/2000/svg" viewBox="0 0 110 80"><defs><style>.cls-1{fill:#0082f0;}.cls-2,.cls-3{fill:#fff;}.cls-2{opacity:0.25;}</style></defs><title>Resurs 3</title><g id="Lager_2" data-name="Lager 2"><g id="Lager_1-2" data-name="Lager 1"><rect class="cls-1" width="110" height="80"/><path class="cls-2" d="M75.34,80,55,48.57,34.65,80h-15L46.54,39.09,20.83,0h15L55,29.6,74.2,0h15L63.68,39.09,90.31,80Z"/><path class="cls-3" d="M38.1,55.52V29.35H28.72V24.48H52.5v4.87H43.15V55.52Z"/><path class="cls-3" d="M81.28,39.18v1.6c0,8.41-4.43,14.7-13.5,14.7H57.37v-31H67.78C76.85,24.48,81.28,30.77,81.28,39.18Zm-5.09,0c0-5.63-2.52-9.88-8.41-9.88H62.42V50.69h5.36c5.89,0,8.41-4.29,8.41-10Z"/></g></g></svg>